<svg width="24" height="25" viewBox="0 0 24 25" fill="none" xmlns="http://www.w3.org/2000/svg">
<path d="M4.776 9.30323L5.648 15.325H18.384L19.251 9.21537L15.758 12.3008L12.003 7.36921L8.094 12.2845L4.776 9.30323ZM14.814 7.73292L14.736 7.80137L14.877 7.81568L16.044 9.34716L17.481 8.07825L17.621 8.09255L17.559 8.00877L19.972 5.87757C20.1263 5.74159 20.3175 5.657 20.5201 5.63511C20.7227 5.61321 20.927 5.65507 21.1057 5.75507C21.2844 5.85506 21.4289 6.00844 21.5199 6.19466C21.6109 6.38088 21.6441 6.59106 21.615 6.79707L20.115 17.3683H3.922L2.399 6.84509C2.36875 6.63793 2.40155 6.42628 2.49295 6.2388C2.58436 6.05132 2.72996 5.89707 2.91002 5.79694C3.09009 5.69682 3.29593 5.65566 3.49966 5.67903C3.70338 5.70241 3.89516 5.78919 4.049 5.92763L6.35 7.99651L6.3 8.05781L6.409 8.04964L7.853 9.34716L9.065 7.82181L9.174 7.81261L9.114 7.75949L11.245 5.08373C11.3399 4.96451 11.46 4.86871 11.5961 4.80345C11.7323 4.7382 11.8812 4.70518 12.0316 4.70685C12.182 4.70852 12.3301 4.74483 12.4649 4.81309C12.5997 4.88135 12.7176 4.9798 12.81 5.1011L14.815 7.73292H14.814ZM4 18.39H20V19.4117C20 19.6826 19.8946 19.9425 19.7071 20.1341C19.5196 20.3257 19.2652 20.4333 19 20.4333H5C4.73479 20.4333 4.48043 20.3257 4.2929 20.1341C4.10536 19.9425 4 19.6826 4 19.4117V18.39Z" fill="#FFF9F9"/>
</svg>
