<svg width="85" height="85" viewBox="0 0 85 85" fill="none" xmlns="http://www.w3.org/2000/svg">
<path d="M38.8662 56.7056C33.4439 56.139 28.5529 54.7931 24.3666 51.4958C23.846 51.085 23.3076 50.6883 22.8366 50.2315C21.002 48.4606 20.8179 46.4277 22.2699 44.3381C23.5095 42.546 25.592 42.0679 27.756 43.0985C28.1739 43.2933 28.5706 43.5448 28.9566 43.8104C36.7589 49.2079 47.4795 49.3567 55.3101 44.0548C56.0893 43.4527 56.9181 42.964 57.8779 42.716C59.7479 42.2344 61.4904 42.925 62.4926 44.5719C63.6401 46.449 63.626 48.2906 62.2129 49.7463C60.0489 51.9881 57.4422 53.6067 54.5487 54.7365C51.811 55.806 48.8112 56.3444 45.8468 56.6985C46.2931 57.1908 46.5056 57.4317 46.7854 57.715C50.8122 61.7879 54.8604 65.8502 58.8766 69.9373C60.2437 71.3327 60.5306 73.0575 59.7762 74.6796C58.951 76.4504 57.1093 77.6156 55.2995 77.4917C54.1556 77.4102 53.2631 76.8365 52.4662 76.0325C49.4274 72.9513 46.332 69.9267 43.3535 66.7887C42.4858 65.875 42.0679 66.0485 41.3029 66.8419C38.2464 70.0117 35.1404 73.1319 32.0095 76.2379C30.607 77.6298 28.9354 77.8813 27.3062 77.0879C25.5779 76.2379 24.4729 74.4635 24.5614 72.675C24.6181 71.4638 25.2095 70.5429 26.0347 69.7142C30.0226 65.705 33.9964 61.6852 37.9737 57.6725C38.2358 57.4033 38.4837 57.12 38.8662 56.7056Z" fill="white"/>
<path d="M42.1706 42.7446C32.4947 42.7092 24.5614 34.6342 24.6145 24.8733C24.6712 15.0063 32.6116 7.05876 42.3831 7.08355C52.1722 7.10835 60.0312 15.1763 59.9851 25.1461C59.932 34.8856 51.9456 42.7765 42.1706 42.7446ZM50.9645 24.8946C50.9711 23.754 50.7521 22.6234 50.3203 21.5677C49.8884 20.5121 49.2522 19.5522 48.4481 18.7432C47.6441 17.9342 46.6881 17.2921 45.6351 16.8538C44.5821 16.4155 43.4528 16.1896 42.3122 16.1892C41.1609 16.1881 40.0209 16.4164 38.9588 16.8608C37.8967 17.3051 36.9338 17.9567 36.1263 18.7774C35.3188 19.598 34.683 20.5714 34.2559 21.6405C33.8287 22.7097 33.6189 23.8532 33.6387 25.0044C33.6401 26.1454 33.8671 27.2749 34.3067 28.3278C34.7464 29.3807 35.39 30.3363 36.2004 31.1395C37.0108 31.9427 37.9721 32.5777 39.029 33.0079C40.0858 33.438 41.2173 33.6549 42.3583 33.6461C43.4993 33.6419 44.6281 33.4118 45.6797 32.969C46.7312 32.5261 47.6846 31.8794 48.4848 31.066C49.285 30.2526 49.9161 29.2888 50.3418 28.2302C50.7674 27.1715 50.979 26.039 50.9645 24.8981V24.8946Z" fill="white"/>
</svg>
