<svg width="86" height="85" viewBox="0 0 86 85" fill="none" xmlns="http://www.w3.org/2000/svg">
<path d="M15.989 35.4168C15.3946 37.731 15.0947 40.1109 15.0965 42.5002C15.0965 44.9439 15.4082 47.3168 15.989 49.5835H26.0757C25.5982 44.8733 25.5982 40.127 26.0757 35.4168H15.989ZM18.8861 28.3335H27.1948C28.1369 24.0233 29.4969 20.1629 31.1651 16.9506C26.0232 19.4277 21.745 23.3937 18.8861 28.3335ZM70.8707 35.4168H60.784C61.2615 40.127 61.2615 44.8733 60.784 49.5835H70.8707C72.063 44.9365 72.063 40.0638 70.8707 35.4168ZM67.9736 28.3335C65.1147 23.3937 60.8365 19.4277 55.6946 16.9506C57.3663 20.1629 58.7228 24.0233 59.6648 28.3335H67.9736ZM33.2015 35.4168C32.9362 37.7686 32.8037 40.1335 32.8048 42.5002C32.8048 44.9262 32.9394 47.2991 33.2015 49.5835H53.6582C54.1916 44.8763 54.1916 40.124 53.6582 35.4168H33.2015ZM34.4694 28.3335H52.3903C51.7457 25.6712 50.816 23.0862 49.6171 20.6233C47.393 16.1785 45.013 14.1668 43.4298 14.1668C41.8432 14.1668 39.4667 16.1785 37.2426 20.6233C36.1269 22.8616 35.1884 25.4647 34.4694 28.3335ZM18.8861 56.6668C21.745 61.6066 26.0232 65.5726 31.1651 68.0498C29.4934 64.8375 28.1369 60.977 27.1948 56.6668H18.8861ZM67.9736 56.6668H59.6648C58.7228 60.977 57.3628 64.8375 55.6946 68.0498C60.8365 65.5726 65.1147 61.6066 67.9736 56.6668ZM34.4694 56.6668C35.1884 59.5356 36.1269 62.1387 37.2426 64.377C39.4667 68.8218 41.8467 70.8335 43.4298 70.8335C45.0165 70.8335 47.393 68.8218 49.6171 64.377C50.7328 62.1387 51.6713 59.5356 52.3903 56.6668H34.4694ZM43.4298 77.9168C23.8692 77.9168 8.01318 62.0608 8.01318 42.5002C8.01318 22.9395 23.8692 7.0835 43.4298 7.0835C62.9905 7.0835 78.8465 22.9395 78.8465 42.5002C78.8465 62.0608 62.9905 77.9168 43.4298 77.9168Z" fill="white"/>
</svg>
